# xmcd CD database file generated by Grip 3.2.0
# 
# Track frame offsets:
#       150
#       19375
#       34630
#       49755
#       69362
#       85755
#       101537
#       114160
#       129055
#       148605
#       164957
#       176977
# 
# Disc length: 2563 seconds
# 
# Revision: 0
# Processed by: cddbd v1.5.2PL0 Copyright (c) Steve Scherf et al.
# Submitted via: Grip 3.2.0
# 
DISCID=9e0a010c
DTITLE=Celtic Orchestra - Celtic Tranquillity
DYEAR=2004
DGENRE=Celtic
TTITLE0=Teddy O'Neill
TTITLE1=Danny Boy/Derry Air
TTITLE2=Down by the Sally Gardens
TTITLE3=Raglan Road
TTITLE4=The emigrant's letter
TTITLE5=Rose of Tralee
TTITLE6=Molly Malone
TTITLE7=Sonny's Dream
TTITLE8=Ag Chríost an Síol
TTITLE9=Only a woman's heart
TTITLE10=Believe me if all those endearing young charms
TTITLE11=Gartan mother's lullary
EXTD=
EXTT0=
EXTT1=
EXTT2=
EXTT3=
EXTT4=
EXTT5=
EXTT6=
EXTT7=
EXTT8=
EXTT9=
EXTT10=
EXTT11=
PLAYORDER=
